Genre:Thriller
Language:English
IMDb: http://www.imdb.com/title/tt1219289/
Source:D.TS.Proper/IMAGINE Thx.


Format : AVI
Format/Info : Audio Video Interleave
File size : 1.03 GiB
Duration : 1h 37mn
Overall bit rate : 1 512 Kbps


Video
ID : 0
Format : MPEG-4 Visual
Format profile : Advanced Simple@L5
Format settings, BVOP : Yes
Format settings, QPel : No
Format settings, GMC : No warppoints
Format settings, Matrix : Default (H.263)
Muxing mode : Packed bitstream
Codec ID : XVID
Codec ID/Hint : XviD
Duration : 1h 37mn
Bit rate : 1 246 Kbps
Width : 720 pixels
Height : 304 pixels
Display aspect ratio : 2.35:1
Frame rate : 25.000 fps
Color space : YUV
Chroma subsampling : 4:2:0
Bit depth : 8 bits
Scan type : Progressive
Bits/(Pixel*Frame) : 0.228
Stream size : 869 MiB (82%)
Writing library : XviD 1.2.1

Audio
ID : 1
Format : AC-3
Format/Info : Audio Coding 3
Mode extension : CM (complete main)
Codec ID : 2000
Duration : 1h 37mn
Bit rate mode : Constant
Bit rate : 256 Kbps
Channel(s) : 2 channels
Channel positions : Front: L R
Sampling rate : 48.0 KHz
Bit depth : 16 bits
Video delay : 100ms
Stream size : 179 MiB (17%)
Alignment : Split accross interleaves
Interleave, duration : 40 ms (1.00 video frame)
Interleave, preload duration : 500 ms



Plot:
A writer discovers a top-secret drug which bestows him with super human abilities
 
http://www.pix2links.com/images/07790046937397646518.png 
http://www.pix2links.com/images/44583634820688253984.png 
http://www.pix2links.com/images/08608364066709564843.png 
http://www.pix2links.com/images/59729061080923329265.png 
http://www.pix2links.com/images/07758525317038862911.png


Greets:

INK,CRYS,IMAGINE,LKRG,FXG,3Li,FLAWL3SS,TA,iLLUSiON,ViSiON,DTRG SAFCuk009,LU,TheFalcon007,MYSTiC,PrisM,Noir,WBZ,LAP,Rx,Kingdom,SAFCuk009+Fabreezy,HDLiTE,TWiZTED,ExtraTorrentRG.ELEKTRI4KA,MAGNAT,CM8
And to all the other p2p grps past and present